<!-- PLACEHOLDER SCREENSHOT: swap for a real TestPilot screenshot.
     Abstract mockup of a dark test-runner dashboard (navy + green passes). -->
<svg xmlns="http://www.w3.org/2000/svg" viewBox="0 0 800 500" role="img">
  <rect width="800" height="500" fill="#0d1520"/>
  <!-- window chrome -->
  <rect width="800" height="42" fill="#0a101a"/>
  <circle cx="24" cy="21" r="7" fill="#ef4444"/>
  <circle cx="48" cy="21" r="7" fill="#eab308"/>
  <circle cx="72" cy="21" r="7" fill="#22c55e"/>
  <rect x="300" y="12" width="200" height="18" rx="9" fill="#16233a"/>
  <!-- sidebar -->
  <rect x="0" y="42" width="190" height="458" fill="#101b2c"/>
  <rect x="20" y="70" width="120" height="16" rx="8" fill="#2c9aff"/>
  <rect x="20" y="110" width="150" height="12" rx="6" fill="#1d2f4a"/>
  <rect x="20" y="138" width="130" height="12" rx="6" fill="#1d2f4a"/>
  <rect x="20" y="166" width="145" height="12" rx="6" fill="#2a3f60"/>
  <rect x="20" y="194" width="110" height="12" rx="6" fill="#1d2f4a"/>
  <rect x="20" y="440" width="150" height="34" rx="8" fill="#2c9aff" opacity="0.25"/>
  <!-- header + progress -->
  <rect x="220" y="70" width="260" height="22" rx="8" fill="#22375a"/>
  <rect x="620" y="66" width="150" height="30" rx="15" fill="#22c55e" opacity="0.85"/>
  <rect x="220" y="112" width="550" height="12" rx="6" fill="#16233a"/>
  <rect x="220" y="112" width="430" height="12" rx="6" fill="#22c55e"/>
  <!-- test result rows -->
  <g transform="translate(220,150)">
    <g>
      <rect width="550" height="44" rx="8" fill="#101b2c"/>
      <circle cx="24" cy="22" r="10" fill="#22c55e"/>
      <path d="M19 22 l4 4 l7 -8" stroke="#0d1520" stroke-width="3" fill="none" stroke-linecap="round"/>
      <rect x="48" y="15" width="240" height="13" rx="6" fill="#22375a"/>
      <rect x="470" y="15" width="60" height="13" rx="6" fill="#16233a"/>
    </g>
    <g transform="translate(0,54)">
      <rect width="550" height="44" rx="8" fill="#101b2c"/>
      <circle cx="24" cy="22" r="10" fill="#22c55e"/>
      <path d="M19 22 l4 4 l7 -8" stroke="#0d1520" stroke-width="3" fill="none" stroke-linecap="round"/>
      <rect x="48" y="15" width="300" height="13" rx="6" fill="#22375a"/>
      <rect x="470" y="15" width="60" height="13" rx="6" fill="#16233a"/>
    </g>
    <g transform="translate(0,108)">
      <rect width="550" height="44" rx="8" fill="#1c1420"/>
      <circle cx="24" cy="22" r="10" fill="#ef4444"/>
      <path d="M20 18 l8 8 M28 18 l-8 8" stroke="#0d1520" stroke-width="3" stroke-linecap="round"/>
      <rect x="48" y="15" width="200" height="13" rx="6" fill="#3a2a44"/>
      <rect x="470" y="15" width="60" height="13" rx="6" fill="#2b1c33"/>
    </g>
    <g transform="translate(0,162)">
      <rect width="550" height="44" rx="8" fill="#101b2c"/>
      <circle cx="24" cy="22" r="10" fill="#22c55e"/>
      <path d="M19 22 l4 4 l7 -8" stroke="#0d1520" stroke-width="3" fill="none" stroke-linecap="round"/>
      <rect x="48" y="15" width="270" height="13" rx="6" fill="#22375a"/>
      <rect x="470" y="15" width="60" height="13" rx="6" fill="#16233a"/>
    </g>
  </g>
  <!-- log console -->
  <rect x="220" y="380" width="550" height="96" rx="8" fill="#0a101a"/>
  <rect x="238" y="398" width="330" height="10" rx="5" fill="#1d2f4a"/>
  <rect x="238" y="418" width="420" height="10" rx="5" fill="#1d2f4a"/>
  <rect x="238" y="438" width="250" height="10" rx="5" fill="#22c55e" opacity="0.6"/>
</svg>
